<?xml version="1.0" standalone="no"?>
<!DOCTYPE svg PUBLIC "-//W3C//DTD SVG 20010904//EN"
 "http://www.w3.org/TR/2001/REC-SVG-20010904/DTD/svg10.dtd">
<svg version="1.0" xmlns="http://www.w3.org/2000/svg"
 width="1012.000000pt" height="1012.000000pt" viewBox="0 0 1012.000000 1012.000000"
 preserveAspectRatio="xMidYMid meet">
<metadata>
Created by potrace 1.14, written by Peter Selinger 2001-2017
</metadata>
<g transform="translate(0.000000,1012.000000) scale(0.100000,-0.100000)"
fill="#000000" stroke="none">
<path d="M310 8673 c-8 -3 -26 -10 -40 -16 -14 -6 -28 -11 -31 -11 -20 -3
-113 -73 -142 -106 -33 -38 -72 -108 -85 -152 -4 -13 -8 -518 -9 -1123 l-2
-1100 27 -70 c22 -56 40 -83 93 -135 71 -70 140 -104 234 -116 28 -3 51 -7 53
-9 2 -2 16 0 30 4 15 4 39 4 55 0 15 -4 27 -3 27 2 0 6 8 5 20 -1 11 -6 20 -7
20 -2 0 5 22 6 48 2 27 -3 61 -3 75 1 15 4 29 4 32 -1 3 -4 20 -4 39 0 19 4
40 4 46 0 7 -4 25 -4 40 0 15 4 33 4 40 0 7 -4 24 -5 38 -1 14 4 47 4 72 1 26
-3 56 -3 66 1 11 3 29 3 42 -2 12 -5 22 -5 22 -1 0 5 23 6 50 2 28 -4 53 -4
55 0 2 4 25 4 50 0 25 -4 45 -3 45 2 0 5 9 4 20 -2 14 -8 20 -8 20 0 0 6 4 9
8 6 5 -3 47 -5 93 -5 46 0 91 0 99 -1 8 0 24 -1 35 -3 11 -2 32 -1 47 4 15 4
30 4 33 -1 3 -4 20 -4 39 0 18 4 41 3 50 -2 10 -6 16 -5 16 2 0 6 5 8 11 5 6
-4 38 -6 72 -5 34 1 68 1 75 1 6 0 22 -1 35 -2 23 -1 98 7 133 15 39 8 119 54
165 94 62 55 131 192 130 257 -1 48 -10 155 -15 174 -9 41 -40 111 -48 111 -5
0 -8 6 -8 13 0 7 -25 37 -56 65 -49 46 -92 72 -159 96 -18 7 -163 19 -192 17
-119 -10 -212 52 -240 159 -5 18 -3 101 2 110 2 3 0 12 -5 20 -5 8 -5 21 1 31
5 10 5 20 1 23 -5 3 -6 26 -2 50 4 25 3 51 -1 58 -4 6 -3 20 2 29 5 11 5 20 0
23 -5 3 -6 21 -2 39 5 18 5 41 1 52 -4 11 -3 25 2 32 5 7 5 14 -2 18 -6 4 -7
12 -1 24 5 9 6 23 1 30 -4 8 -4 27 0 42 5 18 5 29 -1 29 -7 0 -7 6 0 17 6 11
6 24 0 35 -5 9 -6 19 -1 22 6 3 8 61 2 61 -1 0 -2 21 -3 48 -1 26 0 47 3 47 7
0 4 89 -3 97 -4 3 -2 13 3 22 5 10 5 23 1 30 -5 7 -5 30 -1 51 4 21 4 44 0 50
-9 14 5 84 23 120 13 26 27 42 65 74 24 20 149 49 157 36 3 -4 21 -4 40 0 19
4 35 4 35 0 0 -5 12 -5 28 -1 29 7 90 6 99 -3 3 -2 16 -1 29 4 16 6 24 6 24
-1 0 -6 6 -6 18 0 10 5 24 6 31 1 8 -4 25 -5 40 -1 28 7 90 6 98 -3 3 -2 16
-1 29 4 16 6 24 6 24 -1 0 -6 6 -7 16 -1 9 5 34 6 55 2 22 -4 41 -4 44 0 2 4
25 4 49 0 25 -4 49 -3 55 3 5 5 11 5 15 -2 5 -7 13 -8 25 -2 9 5 23 6 30 1 8
-4 25 -5 40 -1 14 3 40 5 56 4 53 -5 70 -5 80 -2 20 6 111 -13 135 -28 60 -38
89 -85 96 -159 4 -32 5 -68 4 -79 0 -11 -1 -27 -1 -35 1 -53 1 -202 0 -208 -1
-4 -1 -9 0 -12 1 -3 3 -32 5 -65 4 -69 23 -140 43 -156 7 -6 13 -17 13 -25 0
-40 159 -163 234 -181 22 -5 142 -15 164 -14 6 0 23 1 37 1 14 0 33 0 43 0 9
0 26 0 37 0 11 -1 27 -1 35 -1 68 2 175 -1 181 -5 4 -2 11 0 14 6 5 8 11 7 21
-1 9 -7 14 -8 14 -1 0 7 10 8 27 3 16 -4 39 -5 53 -1 13 3 46 3 72 0 26 -4 53
-3 60 1 6 4 21 4 33 -1 12 -5 28 -4 35 0 9 5 20 4 27 -2 9 -7 13 -7 13 0 0 7
10 8 29 2 16 -4 31 -6 33 -4 2 2 39 5 81 8 188 10 348 157 373 341 3 28 8 52
9 55 2 3 0 12 -5 20 -5 8 -5 21 0 30 5 9 5 22 0 30 -5 8 -5 21 0 30 5 9 5 22
0 30 -4 7 -4 24 0 36 6 14 5 26 0 29 -5 3 -5 18 0 35 5 17 5 30 0 30 -5 0 -5
13 0 30 5 17 5 30 0 30 -5 0 -5 13 0 30 5 17 6 30 2 30 -4 0 -7 16 -7 35 0 19
3 35 7 35 4 0 3 14 -2 30 -5 17 -5 30 0 30 4 0 5 12 1 27 -4 14 -4 48 -1 75 4
26 4 48 1 48 -3 0 -6 22 -7 49 -1 78 -40 164 -105 230 -79 78 -108 96 -194
120 -42 11 -4155 15 -4185 4z"/>
<path d="M2879 6686 c-2 -2 -31 -6 -64 -9 -84 -9 -96 -12 -153 -41 -144 -73
-221 -204 -220 -375 2 -165 59 -277 183 -356 52 -33 139 -67 149 -58 3 3 11 1
19 -5 7 -6 18 -7 25 -3 7 4 33 5 57 1 26 -4 48 -3 55 4 6 6 10 6 10 0 0 -5 12
-11 27 -12 32 -3 69 -25 102 -61 44 -49 51 -84 51 -260 0 -51 -2 -97 -5 -101
-3 -5 -2 -11 3 -14 5 -3 6 -27 3 -53 -4 -26 -4 -61 -1 -77 3 -16 3 -65 0 -108
-3 -44 -2 -82 1 -83 3 -2 3 -26 -1 -53 -3 -27 -3 -61 1 -75 4 -15 3 -29 -1
-32 -5 -3 -5 -18 -1 -33 4 -15 6 -38 4 -52 -2 -14 -3 -50 -3 -80 1 -30 1 -66
1 -80 1 -85 -6 -159 -18 -187 -16 -39 -62 -88 -92 -98 -11 -3 -21 -10 -21 -14
0 -4 -10 -8 -22 -8 -30 -2 -79 -3 -98 -2 -8 0 -37 0 -65 0 -27 0 -57 0 -65 0
-8 0 -37 0 -65 0 -82 0 -87 0 -150 0 -33 0 -67 0 -75 0 -8 -1 -35 -1 -60 0
-25 1 -52 1 -60 0 -8 -1 -35 -1 -60 0 -25 1 -51 1 -57 0 -31 -3 -41 -3 -88 -2
-27 0 -57 1 -65 0 -89 -3 -230 6 -256 17 -67 28 -115 93 -119 162 -1 17 -5 35
-8 38 -3 4 -2 14 3 23 5 10 5 23 1 30 -5 7 -5 30 -1 51 4 21 4 44 -1 51 -4 7
-3 21 2 30 6 12 5 20 -1 24 -6 4 -8 10 -6 14 19 30 2 209 -27 275 -24 59 -120
176 -143 176 -7 0 -14 4 -16 8 -8 20 -116 55 -181 58 -38 2 -71 5 -74 8 -2 2
-18 0 -34 -4 -16 -5 -29 -6 -29 -2 0 4 -16 7 -35 7 -19 0 -35 -3 -35 -7 0 -4
-7 -5 -15 -2 -21 8 -195 10 -195 3 0 -4 -16 -3 -35 1 -19 4 -37 4 -40 0 -3 -5
-18 -5 -33 0 -16 4 -35 4 -43 -1 -8 -4 -21 -4 -28 1 -8 4 -27 4 -42 0 -16 -5
-41 -5 -56 -1 -16 4 -40 4 -55 0 -16 -4 -30 -4 -33 1 -3 4 -20 4 -39 0 -19 -4
-40 -4 -47 1 -7 4 -16 6 -20 4 -3 -3 -33 -7 -65 -10 -148 -13 -299 -140 -342
-287 -3 -13 -8 -208 -9 -434 -3 -353 -1 -418 13 -465 9 -30 22 -61 30 -70 8
-9 12 -18 9 -21 -9 -8 108 -123 147 -146 45 -25 106 -43 168 -48 25 -3 51 -6
58 -9 6 -2 12 0 12 6 0 6 6 7 12 3 17 -11 48 -13 48 -3 0 4 15 4 33 0 17 -4
43 -5 57 -1 14 4 34 4 45 0 11 -4 34 -4 52 1 18 4 33 3 33 -1 0 -5 12 -5 28
-1 15 5 37 4 50 0 12 -5 22 -4 22 0 0 5 15 6 33 2 17 -4 43 -5 57 -1 14 4 34
4 45 0 11 -4 34 -4 52 1 18 4 33 3 33 -1 0 -5 12 -5 28 -1 15 5 37 4 50 0 12
-5 22 -4 22 0 0 5 16 5 34 1 19 -4 37 -5 40 -3 3 3 26 5 53 4 53 -1 57 -1 157
-2 38 0 73 -2 77 -5 4 -2 11 0 14 6 5 7 11 8 19 1 6 -5 17 -6 24 -2 7 4 33 5
57 1 25 -4 45 -3 45 1 0 4 10 5 23 3 12 -3 27 -6 32 -6 6 1 26 1 45 1 19 1 44
1 55 1 11 0 51 0 89 -1 38 0 73 -2 77 -5 4 -2 11 0 14 6 5 7 11 8 19 1 6 -5
17 -6 24 -2 7 4 33 5 57 1 25 -4 45 -3 45 1 0 4 10 5 23 3 12 -3 27 -6 32 -6
6 1 26 1 45 1 19 1 44 1 55 1 11 0 51 0 89 -1 38 0 73 -2 77 -5 4 -2 11 0 14
6 5 7 11 8 19 1 6 -5 17 -6 24 -2 7 4 33 5 57 1 25 -4 45 -3 45 1 0 4 10 5 23
3 12 -3 27 -6 32 -6 6 1 26 1 45 1 19 1 44 1 55 1 11 0 51 0 89 -1 38 0 73 -2
77 -5 4 -2 11 0 14 6 5 7 11 8 19 1 6 -5 17 -6 25 -2 7 4 30 5 52 1 22 -4 42
-4 44 1 3 4 15 5 28 2 12 -2 38 -4 57 -3 19 1 42 2 50 1 8 -1 24 -1 35 -1 24
1 24 1 103 -1 34 -1 65 0 67 3 6 6 112 0 133 -7 6 -2 12 0 12 5 0 5 10 6 23 4
12 -3 27 -6 32 -6 28 1 92 2 110 3 29 1 34 1 97 -1 31 -1 61 1 67 5 6 3 11 2
11 -4 0 -6 11 -7 28 -2 15 5 37 4 50 0 12 -5 22 -4 22 0 0 5 15 6 33 2 17 -4
43 -5 57 -1 14 4 34 4 45 0 11 -4 34 -4 52 1 18 4 33 3 33 -1 0 -5 12 -5 28
-1 15 5 37 4 50 0 12 -5 22 -5 22 -1 0 4 25 6 56 6 51 -2 103 7 144 23 8 3 20
7 27 9 37 7 126 85 170 149 39 57 68 169 63 250 -1 11 -1 27 -1 35 3 63 2 111
-4 120 -3 5 -3 10 2 10 4 0 8 29 8 65 0 36 -3 65 -7 65 -4 0 -3 14 2 30 5 17
5 30 0 30 -5 0 -5 13 0 30 5 17 5 30 0 30 -5 0 -5 13 0 29 4 15 4 34 0 42 -5
7 -5 20 0 29 5 9 5 22 0 30 -5 8 -5 21 0 30 5 9 5 22 0 30 -5 8 -5 21 0 30 5
9 5 22 1 28 -4 7 -5 35 -1 62 4 27 3 55 -1 62 -4 6 -4 19 1 28 5 9 5 22 0 30
-5 8 -5 21 0 30 5 9 5 22 0 30 -4 7 -4 24 0 36 6 14 5 26 0 29 -5 3 -5 18 0
35 5 17 5 30 0 30 -5 0 -5 13 0 30 5 17 5 30 0 30 -5 0 -5 13 0 30 5 17 6 30
2 30 -4 0 -7 16 -7 35 0 19 3 35 7 35 4 0 3 14 -2 30 -5 17 -5 30 0 30 4 0 5
12 1 27 -4 16 -4 44 -1 65 4 20 4 42 -1 49 -4 7 -4 20 1 29 5 9 5 22 0 30 -5
8 -5 21 0 30 5 9 5 22 0 30 -4 7 -4 24 0 36 6 14 5 26 0 29 -5 3 -5 18 0 35 5
17 5 30 0 30 -5 0 -5 13 0 30 5 17 5 30 0 30 -5 0 -5 13 0 30 5 17 6 30 2 30
-4 0 -7 16 -7 35 0 19 3 35 7 35 4 0 3 14 -2 30 -5 19 -5 30 1 30 6 0 8 4 5 9
-3 4 -8 44 -10 88 -4 76 -37 182 -58 191 -4 2 -8 9 -8 16 0 16 -108 116 -126
116 -8 0 -14 4 -14 9 0 5 -21 17 -47 26 -50 18 -155 26 -313 25 -52 -1 -101
-1 -107 0 -17 0 -36 0 -118 1 -95 0 -93 0 -155 0 -47 -1 -121 -1 -187 -1 -10
0 -38 -1 -63 -1 -25 0 -61 0 -80 0 -30 1 -109 0 -160 -1 -8 0 -44 1 -80 2 -36
1 -69 1 -75 0 -5 -1 -14 -2 -19 -1 -11 2 -107 2 -213 0 -39 -1 -75 1 -81 5 -5
3 -11 4 -13 2z"/>
<path d="M5666 6283 c-3 -3 -24 -7 -45 -9 -57 -4 -144 -50 -196 -103 -64 -65
-98 -140 -99 -223 -1 -38 -5 -68 -10 -68 -5 0 -3 -6 3 -14 8 -9 8 -16 2 -20
-6 -4 -6 -18 -1 -35 4 -16 6 -32 3 -35 -5 -5 -5 -45 0 -169 1 -26 -2 -47 -7
-47 -5 0 -3 -6 3 -14 8 -9 8 -16 2 -20 -6 -4 -6 -18 -1 -35 4 -16 6 -32 3 -35
-5 -5 -5 -45 0 -169 1 -26 -2 -47 -7 -47 -5 0 -3 -6 3 -14 8 -9 8 -16 2 -20
-5 -4 -6 -18 -2 -34 4 -15 5 -38 1 -52 -3 -13 -3 -46 0 -72 4 -27 3 -48 -1
-48 -4 0 -4 -13 1 -29 4 -15 5 -33 1 -39 -3 -5 -4 -47 -1 -91 3 -45 1 -81 -4
-81 -5 0 -3 -6 3 -14 8 -9 8 -16 2 -20 -5 -4 -6 -18 -2 -34 4 -15 5 -38 1 -52
-3 -13 -3 -46 0 -72 4 -27 3 -48 -1 -48 -4 0 -4 -13 1 -29 4 -15 5 -33 1 -40
-4 -6 -5 -33 -1 -59 3 -27 3 -60 -1 -74 -4 -14 -3 -31 1 -38 4 -7 4 -26 0 -41
-5 -16 -5 -31 0 -34 4 -3 4 -20 0 -39 -4 -19 -4 -40 0 -46 4 -7 4 -24 0 -39
-4 -14 -5 -35 -4 -46 4 -22 4 -26 5 -139 0 -44 2 -83 5 -88 3 -4 0 -8 -7 -8
-9 0 -9 -3 0 -14 8 -9 8 -16 2 -20 -5 -4 -6 -18 -2 -34 4 -15 5 -38 1 -52 -3
-13 -3 -46 0 -72 4 -27 3 -48 -1 -48 -4 0 -4 -13 1 -29 4 -15 5 -33 1 -40 -4
-6 -5 -33 -1 -59 3 -27 3 -60 -1 -74 -4 -14 -3 -31 1 -38 4 -7 4 -26 0 -41 -5
-16 -5 -31 0 -34 4 -3 4 -20 0 -39 -4 -19 -4 -40 0 -46 4 -7 4 -24 0 -39 -4
-14 -5 -35 -4 -46 4 -22 4 -26 5 -139 0 -44 2 -83 5 -88 3 -4 0 -8 -7 -8 -9 0
-9 -3 0 -14 8 -9 8 -16 2 -20 -5 -4 -6 -18 -2 -34 4 -15 5 -38 1 -52 -3 -13
-3 -46 0 -72 4 -27 3 -48 -1 -48 -4 0 -4 -13 1 -29 4 -15 5 -33 1 -40 -4 -6
-5 -33 -1 -59 3 -27 3 -60 -1 -74 -4 -14 -3 -31 1 -38 4 -7 4 -26 0 -41 -5
-16 -5 -31 0 -34 4 -3 4 -20 0 -39 -4 -19 -4 -40 0 -46 4 -7 4 -24 0 -39 -4
-14 -5 -35 -4 -46 4 -22 4 -26 5 -139 0 -44 2 -83 5 -88 3 -4 0 -8 -7 -8 -9 0
-9 -3 0 -14 8 -9 8 -16 2 -20 -6 -4 -8 -12 -6 -19 3 -7 7 -32 8 -57 10 -128
85 -235 207 -297 l55 -28 2130 0 2130 0 65 32 c91 45 125 78 170 169 l40 79
-2 1050 -3 1050 -29 58 c-39 76 -100 138 -172 173 l-59 29 -865 2 c-599 1
-873 -2 -890 -9 -14 -6 -31 -12 -38 -14 -22 -4 -85 -49 -120 -85 -18 -19 -47
-63 -65 -99 -27 -58 -31 -76 -32 -160 -1 -52 1 -99 4 -105 3 -5 6 -12 6 -15 7
-52 78 -154 134 -193 88 -61 113 -68 262 -73 53 -1 116 -8 140 -14 104 -27
199 -114 241 -220 20 -51 21 -74 22 -310 1 -244 0 -258 -23 -317 -16 -43 -40
-80 -75 -117 -64 -67 -109 -90 -211 -112 -11 -2 -94 -4 -185 -4 -91 0 -174 1
-185 1 -308 -1 -502 0 -550 1 -163 3 -301 111 -344 268 -9 35 -11 375 -9 1470
2 784 7 1438 11 1454 16 60 108 186 135 186 6 0 12 4 14 8 2 4 26 19 53 32
l50 25 510 3 c487 2 512 1 564 -18 112 -40 181 -109 225 -219 12 -32 18 -81
21 -170 2 -70 6 -139 10 -156 26 -105 116 -207 218 -249 l62 -25 455 2 455 2
55 28 c98 50 159 119 193 220 24 72 25 835 1 916 -26 88 -79 159 -155 207 -40
25 -156 60 -166 50 -3 -3 -14 -1 -24 4 -11 6 -20 6 -24 1 -3 -6 -17 -6 -35 -1
-17 5 -30 5 -30 0 0 -5 -13 -5 -30 0 -17 5 -30 5 -30 0 0 -5 -13 -5 -30 0 -17
5 -30 5 -30 0 0 -5 -13 -5 -30 0 -17 5 -30 5 -30 0 0 -5 -13 -5 -30 0 -17 5
-30 5 -30 0 0 -5 -13 -5 -30 0 -17 5 -30 5 -30 0 0 -5 -13 -5 -30 0 -17 5 -30
5 -30 0 0 -5 -13 -5 -30 0 -17 5 -30 5 -30 0 0 -5 -13 -5 -30 0 -17 5 -30 5
-30 0 0 -5 -13 -5 -30 0 -17 5 -30 5 -30 0 0 -5 -13 -5 -30 0 -17 5 -30 5 -30
0 0 -5 -13 -5 -30 0 -17 5 -30 5 -30 0 0 -5 -13 -5 -30 0 -17 5 -30 5 -30 0 0
-5 -13 -5 -30 0 -17 5 -30 5 -30 0 0 -5 -13 -5 -30 0 -16 5 -30 6 -30 2 0 -4
-16 -7 -35 -7 -19 0 -35 3 -35 7 0 4 -13 3 -30 -2 -17 -5 -30 -5 -30 0 0 5
-13 5 -30 0 -17 -5 -30 -5 -30 0 0 5 -13 5 -30 0 -17 -5 -30 -5 -30 0 0 5 -13
5 -30 0 -17 -5 -30 -5 -30 0 0 5 -13 5 -30 0 -17 -5 -30 -5 -30 0 0 5 -13 5
-30 0 -17 -5 -30 -5 -30 0 0 5 -13 5 -30 0 -17 -5 -30 -5 -30 0 0 5 -13 5 -30
0 -17 -5 -30 -5 -30 0 0 5 -13 5 -30 0 -17 -5 -30 -5 -30 0 0 5 -13 5 -30 0
-17 -5 -30 -5 -30 0 0 5 -13 5 -30 0 -17 -5 -30 -5 -30 0 0 5 -13 5 -30 0 -17
-5 -30 -5 -30 0 0 5 -13 5 -30 0 -17 -5 -30 -5 -30 0 0 5 -13 5 -30 0 -17 -5
-30 -5 -30 0 0 5 -13 5 -30 0 -17 -5 -30 -5 -30 0 0 5 -13 5 -30 0 -17 -5 -30
-5 -30 0 0 5 -13 5 -30 0 -16 -5 -30 -6 -30 -2 0 8 -84 7 -97 -1 -5 -3 -15 -2
-23 3 -8 5 -21 5 -30 0 -9 -5 -22 -5 -29 0 -8 4 -27 4 -42 0 -16 -5 -31 -5
-34 0 -3 5 -19 5 -35 0 -18 -5 -32 -5 -35 1 -4 5 -13 5 -24 0 -10 -6 -23 -6
-31 -1 -8 5 -21 5 -30 0 -9 -5 -22 -5 -30 0 -8 5 -21 5 -30 0 -9 -5 -22 -5
-29 0 -8 4 -27 4 -42 0 -16 -5 -31 -5 -34 0 -3 5 -19 5 -35 0 -18 -5 -32 -5
-35 1 -4 5 -13 5 -24 0 -10 -6 -23 -6 -31 -1 -8 5 -21 5 -30 0 -9 -5 -22 -5
-30 0 -8 5 -21 5 -30 0 -9 -5 -22 -5 -29 0 -8 4 -27 4 -42 0 -16 -5 -31 -5
-34 0 -3 5 -19 5 -35 0 -18 -5 -32 -5 -35 1 -4 5 -13 5 -24 0 -10 -6 -23 -6
-31 -1 -8 5 -21 5 -30 0 -9 -5 -22 -5 -30 0 -8 5 -21 5 -30 0 -9 -5 -22 -5
-29 0 -8 4 -27 4 -42 0 -16 -5 -31 -5 -34 0 -3 5 -19 5 -35 0 -17 -5 -32 -5
-35 0 -3 5 -13 6 -22 3 -21 -8 -64 -9 -84 -1 -9 3 -22 2 -29 -2 -8 -5 -21 -5
-30 0 -9 5 -22 5 -30 0 -8 -5 -21 -5 -30 0 -9 5 -22 5 -30 0 -8 -5 -21 -5 -30
0 -9 5 -22 5 -30 0 -8 -5 -21 -5 -30 0 -9 5 -22 5 -30 0 -8 -5 -21 -5 -30 0
-9 5 -22 5 -30 0 -8 -5 -21 -5 -30 0 -9 5 -22 5 -30 0 -8 -5 -21 -5 -30 0 -9
5 -22 5 -30 0 -8 -5 -21 -5 -30 0 -9 5 -22 5 -30 0 -8 -5 -21 -5 -30 0 -9 5
-22 5 -30 0 -8 -5 -21 -5 -30 0 -9 5 -22 5 -30 0 -8 -5 -21 -5 -31 0 -9 5 -19
7 -23 3z"/>
</g>
</svg>
