<svg width="253" height="181" viewBox="0 0 253 181" fill="none" xmlns="http://www.w3.org/2000/svg">
<path fill-rule="evenodd" clip-rule="evenodd" d="M0 10C0 4.47715 4.47715 0 10 0H32C32.2798 0 32.5569 0.0114902 32.8309 0.0340246C33.0508 0.0115269 33.2741 0 33.5 0H87.5C87.5747 0 87.6491 0.00125951 87.7231 0.00375844C87.8151 0.0012582 87.9074 0 88 0H110C115.523 0 120 4.47715 120 10V27C120 32.5228 115.523 37 110 37H88C82.4771 37 78 32.5228 78 27V18C78 15.2386 75.7614 13 73 13H47C44.2386 13 42 15.2386 42 18V45C42 47.7614 44.2386 50 47 50H50C55.5228 50 60 54.4772 60 60V61C60 66.5229 55.5228 71 50 71H47C46.6575 71 46.3231 71.0344 46 71.1V71H32H16H10C4.47715 71 0 66.5229 0 61V10ZM86.6146 120.905C86.2524 120.967 85.88 121 85.5 121H32H31.5H10C4.47715 121 0 116.523 0 111V94C0 88.4771 4.47715 84 10 84H32C37.5228 84 42 88.4771 42 94V103C42 105.761 44.2386 108 47 108H73C75.7614 108 78 105.761 78 103V76C78 73.2386 75.7614 71 73 71H71C65.4771 71 61 66.5229 61 61V60C61 54.4772 65.4771 50 71 50H73C73.3425 50 73.6769 49.9656 74 49.9V50H88H105H110C115.523 50 120 54.4772 120 60V111C120 116.523 115.523 121 110 121H88C87.5299 121 87.0674 120.968 86.6146 120.905ZM142 60C137.029 60 133 64.0294 133 69V172C133 176.971 137.029 181 142 181H176.729L216.39 181V161.009H216.39V181H244C248.971 181 253 176.971 253 172V123.713C253 118.742 248.971 114.713 244 114.713H216.39H205.051C200.08 114.713 196.051 118.742 196.051 123.713V124.652C196.051 129.623 200.08 133.652 205.051 133.652L207.39 133.652C212.36 133.652 216.39 137.682 216.39 142.652V152.009C216.39 156.979 212.36 161.009 207.39 161.009H185.729C180.758 161.009 176.729 156.979 176.729 152.009V161.009H176.729L176.729 83.6991C176.746 78.743 180.769 74.7305 185.729 74.7305H207.39C212.36 74.7305 216.39 78.7599 216.39 83.7305L216.39 74.7304V86.7739C216.39 91.7445 220.419 95.7739 225.39 95.7739H244C248.971 95.7739 253 91.7445 253 86.7739V69C253 64.0294 248.971 60 244 60H216.39H176.729H142Z" fill="#3E356E"/>
</svg>
