<svg width="276" height="158" viewBox="0 0 276 158" fill="none" xmlns="http://www.w3.org/2000/svg">
<path fill-rule="evenodd" clip-rule="evenodd" d="M137.999 9.48871C64.0244 9.48871 4.05798 23.7858 4.05798 41.4221C4.05798 59.0597 64.0258 73.3554 137.999 73.3554C211.973 73.3554 271.941 59.0597 271.941 41.4221C271.941 23.7858 211.974 9.48871 137.999 9.48871ZM138 68.0333C215.147 68.0333 247.991 56.1173 247.991 41.4221C247.991 26.7255 215.149 14.811 138 14.811C60.8513 14.811 28.0087 26.7255 28.0087 41.4221C28.0087 56.1173 60.8527 68.0333 138 68.0333Z" fill="white"/>
<path fill-rule="evenodd" clip-rule="evenodd" d="M58.3428 28.4065H74.9638C79.6689 28.4065 83.492 31.3146 83.0395 34.7568C82.6472 37.7365 80.9218 39.2256 79.6689 39.9315C80.8445 41.4221 81.7065 44.6352 80.2961 47.7724C78.8857 50.9068 74.2593 52.7897 70.1828 52.8684H51.4426L58.3428 28.4065ZM63.8312 35.1491H71.9083C73.3974 35.1491 73.3187 37.3441 71.672 37.3441H63.2054L63.8312 35.1491ZM61.3225 43.9307H71.2797C72.7703 43.9307 72.6915 46.1257 71.0449 46.1257H60.6954L61.3225 43.9307ZM146.623 28.4065H153.917L149.054 46.1243H162.542L160.659 52.867H139.724L146.623 28.4065ZM119.498 28.4065L117.537 35.1491H125.298L120.281 52.867H127.729L132.669 35.1491H140.275L142.233 28.4065H119.498ZM88.3718 28.4065L84.059 43.9307C83.041 47.5376 85.7057 53.7318 96.2112 53.8106C104.993 53.8106 109.854 50.125 111.108 45.4986L115.891 28.4065H108.521L104.602 42.2053C103.973 44.714 101.23 46.9892 97.0732 46.9892C92.918 46.9892 91.0365 45.4199 92.056 41.7357L95.8189 28.4065H88.3718ZM171.32 28.4065H195.235L193.352 35.1491H176.888L176.262 37.3442H188.648L186.766 44.0868H174.301L173.754 46.1243H190.295L188.413 52.867H164.5L171.32 28.4065ZM201.036 28.4065H214.366C220.401 28.4065 225.183 31.8558 225.183 36.717C225.183 40.0876 222.361 44.4004 217.736 45.185L223.226 52.867H214.444L209.662 46.1243H203.468L201.508 52.867H194.139L201.036 28.4065ZM206.523 35.1491H212.952C215.07 35.1491 216.795 35.6975 216.717 37.2668C216.638 38.8347 215.617 39.3845 211.541 39.3845H205.27L206.523 35.1491Z" fill="white"/>
<path fill-rule="evenodd" clip-rule="evenodd" d="M254.537 63.3296C258.612 63.3296 261.83 66.5484 261.83 70.8139C261.83 75.151 258.612 78.3455 254.537 78.3455C250.414 78.3455 247.198 75.1525 247.198 70.8139C247.198 66.5484 250.414 63.3296 254.537 63.3296V61.8304C249.581 61.8304 245.385 65.6421 245.385 70.8125C245.385 76.0316 249.581 79.8461 254.537 79.8461C259.448 79.8461 263.639 76.0316 263.639 70.8125C263.639 65.6421 259.446 61.8304 254.537 61.8304V63.3296Z" fill="white"/>
<path fill-rule="evenodd" clip-rule="evenodd" d="M252.632 66.9765H254.774C255.871 66.9765 257.039 67.2142 257.039 68.5C257.039 70.0966 255.848 70.1925 254.514 70.1925H252.632V71.5298H254.442L257.183 76.033H258.947L255.991 71.4582C257.518 71.2678 258.685 70.4574 258.685 68.6003C258.685 66.5498 257.467 65.6449 255.016 65.6449H251.058V76.0345H252.634V66.9765H252.632Z" fill="white"/>
<path d="M85.5117 99.5254V95.1836H96.7266V105.449C95.6367 106.504 94.0547 107.436 91.9805 108.244C89.918 109.041 87.8262 109.439 85.7051 109.439C83.0098 109.439 80.6602 108.877 78.6562 107.752C76.6523 106.615 75.1465 104.998 74.1387 102.9C73.1309 100.791 72.627 98.5 72.627 96.0273C72.627 93.3438 73.1895 90.959 74.3145 88.873C75.4395 86.7871 77.0859 85.1875 79.2539 84.0742C80.9062 83.2188 82.9629 82.791 85.4238 82.791C88.623 82.791 91.1191 83.4648 92.9121 84.8125C94.7168 86.1484 95.877 88 96.3926 90.3672L91.2246 91.334C90.8613 90.0684 90.1758 89.0723 89.168 88.3457C88.1719 87.6074 86.9238 87.2383 85.4238 87.2383C83.1504 87.2383 81.3398 87.959 79.9922 89.4004C78.6562 90.8418 77.9883 92.9805 77.9883 95.8164C77.9883 98.875 78.668 101.172 80.0273 102.707C81.3867 104.23 83.168 104.992 85.3711 104.992C86.4609 104.992 87.5508 104.781 88.6406 104.359C89.7422 103.926 90.6855 103.404 91.4707 102.795V99.5254H85.5117ZM112.318 103.059L117.24 103.885C116.607 105.689 115.605 107.066 114.234 108.016C112.875 108.953 111.17 109.422 109.119 109.422C105.873 109.422 103.471 108.361 101.912 106.24C100.682 104.541 100.066 102.396 100.066 99.8066C100.066 96.7129 100.875 94.293 102.492 92.5469C104.109 90.7891 106.154 89.9102 108.627 89.9102C111.404 89.9102 113.596 90.8301 115.201 92.6699C116.807 94.498 117.574 97.3047 117.504 101.09H105.129C105.164 102.555 105.562 103.697 106.324 104.518C107.086 105.326 108.035 105.73 109.172 105.73C109.945 105.73 110.596 105.52 111.123 105.098C111.65 104.676 112.049 103.996 112.318 103.059ZM112.6 98.0664C112.564 96.6367 112.195 95.5527 111.492 94.8145C110.789 94.0645 109.934 93.6895 108.926 93.6895C107.848 93.6895 106.957 94.082 106.254 94.8672C105.551 95.6523 105.205 96.7188 105.217 98.0664H112.6ZM138.527 109H133.588V99.4727C133.588 97.457 133.482 96.1562 133.271 95.5703C133.061 94.9727 132.715 94.5098 132.234 94.1816C131.766 93.8535 131.197 93.6895 130.529 93.6895C129.674 93.6895 128.906 93.9238 128.227 94.3926C127.547 94.8613 127.078 95.4824 126.82 96.2559C126.574 97.0293 126.451 98.459 126.451 100.545V109H121.512V90.332H126.1V93.0742C127.729 90.9648 129.779 89.9102 132.252 89.9102C133.342 89.9102 134.338 90.1094 135.24 90.5078C136.143 90.8945 136.822 91.3926 137.279 92.002C137.748 92.6113 138.07 93.3027 138.246 94.0762C138.434 94.8496 138.527 95.957 138.527 97.3984V109ZM154.365 103.059L159.287 103.885C158.654 105.689 157.652 107.066 156.281 108.016C154.922 108.953 153.217 109.422 151.166 109.422C147.92 109.422 145.518 108.361 143.959 106.24C142.729 104.541 142.113 102.396 142.113 99.8066C142.113 96.7129 142.922 94.293 144.539 92.5469C146.156 90.7891 148.201 89.9102 150.674 89.9102C153.451 89.9102 155.643 90.8301 157.248 92.6699C158.854 94.498 159.621 97.3047 159.551 101.09H147.176C147.211 102.555 147.609 103.697 148.371 104.518C149.133 105.326 150.082 105.73 151.219 105.73C151.992 105.73 152.643 105.52 153.17 105.098C153.697 104.676 154.096 103.996 154.365 103.059ZM154.646 98.0664C154.611 96.6367 154.242 95.5527 153.539 94.8145C152.836 94.0645 151.98 93.6895 150.973 93.6895C149.895 93.6895 149.004 94.082 148.301 94.8672C147.598 95.6523 147.252 96.7188 147.264 98.0664H154.646ZM168.322 109H163.383V90.332H167.971V92.9863C168.756 91.7324 169.459 90.9062 170.08 90.5078C170.713 90.1094 171.428 89.9102 172.225 89.9102C173.35 89.9102 174.434 90.2207 175.477 90.8418L173.947 95.1484C173.115 94.6094 172.342 94.3398 171.627 94.3398C170.936 94.3398 170.35 94.5332 169.869 94.9199C169.389 95.2949 169.008 95.9805 168.727 96.9766C168.457 97.9727 168.322 100.059 168.322 103.234V109ZM181.312 96.0273L176.83 95.2188C177.334 93.4141 178.201 92.0781 179.432 91.2109C180.662 90.3438 182.49 89.9102 184.916 89.9102C187.119 89.9102 188.76 90.1738 189.838 90.7012C190.916 91.2168 191.672 91.8789 192.105 92.6875C192.551 93.4844 192.773 94.9551 192.773 97.0996L192.721 102.865C192.721 104.506 192.797 105.719 192.949 106.504C193.113 107.277 193.412 108.109 193.846 109H188.959C188.83 108.672 188.672 108.186 188.484 107.541C188.402 107.248 188.344 107.055 188.309 106.961C187.465 107.781 186.562 108.396 185.602 108.807C184.641 109.217 183.615 109.422 182.525 109.422C180.604 109.422 179.086 108.9 177.973 107.857C176.871 106.814 176.32 105.496 176.32 103.902C176.32 102.848 176.572 101.91 177.076 101.09C177.58 100.258 178.283 99.625 179.186 99.1914C180.1 98.7461 181.412 98.3594 183.123 98.0312C185.432 97.5977 187.031 97.1934 187.922 96.8184V96.3262C187.922 95.377 187.688 94.7031 187.219 94.3047C186.75 93.8945 185.865 93.6895 184.564 93.6895C183.686 93.6895 183 93.8652 182.508 94.2168C182.016 94.5566 181.617 95.1602 181.312 96.0273ZM187.922 100.035C187.289 100.246 186.287 100.498 184.916 100.791C183.545 101.084 182.648 101.371 182.227 101.652C181.582 102.109 181.26 102.689 181.26 103.393C181.26 104.084 181.518 104.682 182.033 105.186C182.549 105.689 183.205 105.941 184.002 105.941C184.893 105.941 185.742 105.648 186.551 105.062C187.148 104.617 187.541 104.072 187.729 103.428C187.857 103.006 187.922 102.203 187.922 101.02V100.035ZM197.66 109V83.2305H202.6V109H197.66ZM65.0332 140.525L70.0781 142.125C69.3047 144.938 68.0156 147.029 66.2109 148.4C64.418 149.76 62.1387 150.439 59.373 150.439C55.9512 150.439 53.1387 149.273 50.9355 146.941C48.7324 144.598 47.6309 141.398 47.6309 137.344C47.6309 133.055 48.7383 129.727 50.9531 127.359C53.168 124.98 56.0801 123.791 59.6895 123.791C62.8418 123.791 65.4023 124.723 67.3711 126.586C68.543 127.688 69.4219 129.27 70.0078 131.332L64.8574 132.562C64.5527 131.227 63.9141 130.172 62.9414 129.398C61.9805 128.625 60.8086 128.238 59.4258 128.238C57.5156 128.238 55.9629 128.924 54.7676 130.295C53.584 131.666 52.9922 133.887 52.9922 136.957C52.9922 140.215 53.5781 142.535 54.75 143.918C55.9219 145.301 57.4453 145.992 59.3203 145.992C60.7031 145.992 61.8926 145.553 62.8887 144.674C63.8848 143.795 64.5996 142.412 65.0332 140.525ZM73.3828 140.402C73.3828 138.762 73.7871 137.174 74.5957 135.639C75.4043 134.104 76.5469 132.932 78.0234 132.123C79.5117 131.314 81.1699 130.91 82.998 130.91C85.8223 130.91 88.1367 131.83 89.9414 133.67C91.7461 135.498 92.6484 137.812 92.6484 140.613C92.6484 143.438 91.7344 145.781 89.9062 147.645C88.0898 149.496 85.7988 150.422 83.0332 150.422C81.3223 150.422 79.6875 150.035 78.1289 149.262C76.582 148.488 75.4043 147.357 74.5957 145.869C73.7871 144.369 73.3828 142.547 73.3828 140.402ZM78.4453 140.666C78.4453 142.518 78.8848 143.936 79.7637 144.92C80.6426 145.904 81.7266 146.396 83.0156 146.396C84.3047 146.396 85.3828 145.904 86.25 144.92C87.1289 143.936 87.5684 142.506 87.5684 140.631C87.5684 138.803 87.1289 137.396 86.25 136.412C85.3828 135.428 84.3047 134.936 83.0156 134.936C81.7266 134.936 80.6426 135.428 79.7637 136.412C78.8848 137.396 78.4453 138.814 78.4453 140.666ZM113.514 150H108.574V140.473C108.574 138.457 108.469 137.156 108.258 136.57C108.047 135.973 107.701 135.51 107.221 135.182C106.752 134.854 106.184 134.689 105.516 134.689C104.66 134.689 103.893 134.924 103.213 135.393C102.533 135.861 102.064 136.482 101.807 137.256C101.561 138.029 101.438 139.459 101.438 141.545V150H96.498V131.332H101.086V134.074C102.715 131.965 104.766 130.91 107.238 130.91C108.328 130.91 109.324 131.109 110.227 131.508C111.129 131.895 111.809 132.393 112.266 133.002C112.734 133.611 113.057 134.303 113.232 135.076C113.42 135.85 113.514 136.957 113.514 138.398V150ZM127.102 131.332V135.27H123.727V142.793C123.727 144.316 123.756 145.207 123.814 145.465C123.885 145.711 124.031 145.916 124.254 146.08C124.488 146.244 124.77 146.326 125.098 146.326C125.555 146.326 126.217 146.168 127.084 145.852L127.506 149.684C126.357 150.176 125.057 150.422 123.604 150.422C122.713 150.422 121.91 150.275 121.195 149.982C120.48 149.678 119.953 149.291 119.613 148.822C119.285 148.342 119.057 147.697 118.928 146.889C118.822 146.314 118.77 145.154 118.77 143.408V135.27H116.502V131.332H118.77V127.623L123.727 124.74V131.332H127.102ZM135.258 150H130.318V131.332H134.906V133.986C135.691 132.732 136.395 131.906 137.016 131.508C137.648 131.109 138.363 130.91 139.16 130.91C140.285 130.91 141.369 131.221 142.412 131.842L140.883 136.148C140.051 135.609 139.277 135.34 138.562 135.34C137.871 135.34 137.285 135.533 136.805 135.92C136.324 136.295 135.943 136.98 135.662 137.977C135.393 138.973 135.258 141.059 135.258 144.234V150ZM148.248 137.027L143.766 136.219C144.27 134.414 145.137 133.078 146.367 132.211C147.598 131.344 149.426 130.91 151.852 130.91C154.055 130.91 155.695 131.174 156.773 131.701C157.852 132.217 158.607 132.879 159.041 133.688C159.486 134.484 159.709 135.955 159.709 138.1L159.656 143.865C159.656 145.506 159.732 146.719 159.885 147.504C160.049 148.277 160.348 149.109 160.781 150H155.895C155.766 149.672 155.607 149.186 155.42 148.541C155.338 148.248 155.279 148.055 155.244 147.961C154.4 148.781 153.498 149.396 152.537 149.807C151.576 150.217 150.551 150.422 149.461 150.422C147.539 150.422 146.021 149.9 144.908 148.857C143.807 147.814 143.256 146.496 143.256 144.902C143.256 143.848 143.508 142.91 144.012 142.09C144.516 141.258 145.219 140.625 146.121 140.191C147.035 139.746 148.348 139.359 150.059 139.031C152.367 138.598 153.967 138.193 154.857 137.818V137.326C154.857 136.377 154.623 135.703 154.154 135.305C153.686 134.895 152.801 134.689 151.5 134.689C150.621 134.689 149.936 134.865 149.443 135.217C148.951 135.557 148.553 136.16 148.248 137.027ZM154.857 141.035C154.225 141.246 153.223 141.498 151.852 141.791C150.48 142.084 149.584 142.371 149.162 142.652C148.518 143.109 148.195 143.689 148.195 144.393C148.195 145.084 148.453 145.682 148.969 146.186C149.484 146.689 150.141 146.941 150.938 146.941C151.828 146.941 152.678 146.648 153.486 146.062C154.084 145.617 154.477 145.072 154.664 144.428C154.793 144.006 154.857 143.203 154.857 142.02V141.035ZM180.873 136.852L176.004 137.73C175.84 136.758 175.465 136.025 174.879 135.533C174.305 135.041 173.555 134.795 172.629 134.795C171.398 134.795 170.414 135.223 169.676 136.078C168.949 136.922 168.586 138.34 168.586 140.332C168.586 142.547 168.955 144.111 169.693 145.025C170.443 145.939 171.445 146.396 172.699 146.396C173.637 146.396 174.404 146.133 175.002 145.605C175.6 145.066 176.021 144.146 176.268 142.846L181.119 143.672C180.615 145.898 179.648 147.58 178.219 148.717C176.789 149.854 174.873 150.422 172.471 150.422C169.74 150.422 167.561 149.561 165.932 147.838C164.314 146.115 163.506 143.73 163.506 140.684C163.506 137.602 164.32 135.205 165.949 133.494C167.578 131.771 169.781 130.91 172.559 130.91C174.832 130.91 176.637 131.402 177.973 132.387C179.32 133.359 180.287 134.848 180.873 136.852ZM193.195 131.332V135.27H189.82V142.793C189.82 144.316 189.85 145.207 189.908 145.465C189.979 145.711 190.125 145.916 190.348 146.08C190.582 146.244 190.863 146.326 191.191 146.326C191.648 146.326 192.311 146.168 193.178 145.852L193.6 149.684C192.451 150.176 191.15 150.422 189.697 150.422C188.807 150.422 188.004 150.275 187.289 149.982C186.574 149.678 186.047 149.291 185.707 148.822C185.379 148.342 185.15 147.697 185.021 146.889C184.916 146.314 184.863 145.154 184.863 143.408V135.27H182.596V131.332H184.863V127.623L189.82 124.74V131.332H193.195ZM195.48 140.402C195.48 138.762 195.885 137.174 196.693 135.639C197.502 134.104 198.645 132.932 200.121 132.123C201.609 131.314 203.268 130.91 205.096 130.91C207.92 130.91 210.234 131.83 212.039 133.67C213.844 135.498 214.746 137.812 214.746 140.613C214.746 143.438 213.832 145.781 212.004 147.645C210.188 149.496 207.896 150.422 205.131 150.422C203.42 150.422 201.785 150.035 200.227 149.262C198.68 148.488 197.502 147.357 196.693 145.869C195.885 144.369 195.48 142.547 195.48 140.402ZM200.543 140.666C200.543 142.518 200.982 143.936 201.861 144.92C202.74 145.904 203.824 146.396 205.113 146.396C206.402 146.396 207.48 145.904 208.348 144.92C209.227 143.936 209.666 142.506 209.666 140.631C209.666 138.803 209.227 137.396 208.348 136.412C207.48 135.428 206.402 134.936 205.113 134.936C203.824 134.936 202.74 135.428 201.861 136.412C200.982 137.396 200.543 138.814 200.543 140.666ZM223.359 150H218.42V131.332H223.008V133.986C223.793 132.732 224.496 131.906 225.117 131.508C225.75 131.109 226.465 130.91 227.262 130.91C228.387 130.91 229.471 131.221 230.514 131.842L228.984 136.148C228.152 135.609 227.379 135.34 226.664 135.34C225.973 135.34 225.387 135.533 224.906 135.92C224.426 136.295 224.045 136.98 223.764 137.977C223.494 138.973 223.359 141.059 223.359 144.234V150Z" fill="white"/>
</svg>
